<svg xmlns="http://www.w3.org/2000/svg" viewBox="0 0 14.27 17.28"><defs><style>.cls-1{fill:#fff;}.cls-2{fill:none;stroke:#fff;stroke-linecap:round;stroke-linejoin:round;stroke-width:0.71px;}</style></defs><g id="Layer_2" data-name="Layer 2"><g id="Layer_1-2" data-name="Layer 1"><path class="cls-1" d="M14.05,4.29,10,.22A.75.75,0,0,0,9.45,0H1.13A1.12,1.12,0,0,0,0,1.13v15a1.13,1.13,0,0,0,1.13,1.13h12a1.13,1.13,0,0,0,1.13-1.13V4.82A.75.75,0,0,0,14.05,4.29ZM10.14,1.44l2.69,2.69H10.52a.38.38,0,0,1-.38-.37Zm3,15.08h-12a.37.37,0,0,1-.38-.37v-15A.38.38,0,0,1,1.13.75H9.39v3a1.12,1.12,0,0,0,1.13,1.12h3V16.15A.37.37,0,0,1,13.14,16.52Z"/><line class="cls-2" x1="2.64" y1="2.94" x2="7.58" y2="2.94"/><line class="cls-2" x1="2.64" y1="5.77" x2="8.28" y2="5.77"/><line class="cls-2" x1="2.64" y1="11.42" x2="11.68" y2="11.42"/><line class="cls-2" x1="2.64" y1="8.59" x2="11.68" y2="8.59"/><line class="cls-2" x1="2.64" y1="14.24" x2="11.68" y2="14.24"/></g></g></svg>