<svg xmlns="http://www.w3.org/2000/svg" viewBox="0 0 16.56 15.69"><defs><style>.cls-1{fill:none;stroke:#fff;stroke-linecap:round;stroke-linejoin:round;stroke-width:0.87px;}</style></defs><g id="Layer_2" data-name="Layer 2"><g id="Layer_1-2" data-name="Layer 1"><path class="cls-1" d="M.44,7.41,7.12.92a1.64,1.64,0,0,1,2.32,0l6.68,6.49M14.38,5.86v8.52a.87.87,0,0,1-.87.87H11.76a.87.87,0,0,1-.87-.87V12.64a1.74,1.74,0,0,0-1.74-1.75H7.41a1.75,1.75,0,0,0-1.75,1.75v1.74a.87.87,0,0,1-.87.87H3.05a.87.87,0,0,1-.87-.87V5.86"/></g></g></svg>