<svg xmlns="http://www.w3.org/2000/svg" viewBox="0 0 14.15 17.19"><defs><style>.cls-1{fill:#fff;}</style></defs><g id="Layer_2" data-name="Layer 2"><g id="Layer_1-2" data-name="Layer 1"><path class="cls-1" d="M1,.72A.32.32,0,0,0,.72,1V16.16a.33.33,0,0,0,.32.32H13.11a.33.33,0,0,0,.32-.32V1a.32.32,0,0,0-.32-.32ZM13.11,17.19H1a1,1,0,0,1-1-1V1A1,1,0,0,1,1,0H13.11a1,1,0,0,1,1,1V16.16a1,1,0,0,1-1,1"/><path class="cls-1" d="M2.43,6.11H6.86V3.42H2.43Zm4.47.72H2.38a.68.68,0,0,1-.67-.68V3.37a.67.67,0,0,1,.67-.67H6.9a.67.67,0,0,1,.68.67V6.15a.68.68,0,0,1-.68.68"/><path class="cls-1" d="M12.08,9.38H2.3A.36.36,0,0,1,1.94,9a.36.36,0,0,1,.36-.36h9.78a.36.36,0,0,1,.36.36.36.36,0,0,1-.36.36"/><path class="cls-1" d="M12.08,11.94H2.3a.36.36,0,1,1,0-.72h9.78a.36.36,0,0,1,0,.72"/><path class="cls-1" d="M12.08,14.5H2.3a.36.36,0,0,1,0-.72h9.78a.36.36,0,0,1,0,.72"/><path class="cls-1" d="M12.08,3.84h-3a.36.36,0,0,1-.36-.36.36.36,0,0,1,.36-.36h3a.36.36,0,0,1,.36.36.36.36,0,0,1-.36.36"/><path class="cls-1" d="M12.08,6.4h-3a.36.36,0,0,1,0-.72h3a.36.36,0,1,1,0,.72"/></g></g></svg>