<svg xmlns="http://www.w3.org/2000/svg" viewBox="0 0 22.58 26.76"><defs><style>.cls-1{fill:#fff;}</style></defs><g id="Layer_2" data-name="Layer 2"><g id="Stories"><path class="cls-1" d="M20,8.33l.59-.59.15.15a.42.42,0,0,0,.59,0l1.1-1.1a.42.42,0,0,0,0-.59L20.69,4.43a.44.44,0,0,0-.6,0L19,5.52a.44.44,0,0,0,0,.6l.14.14-.57.58a13.62,13.62,0,0,0-6.51-2.56V2.93h1.32a.42.42,0,0,0,.42-.42V.42A.42.42,0,0,0,13.38,0H9.2a.42.42,0,0,0-.42.42V2.51a.42.42,0,0,0,.42.42h1.32V4.28A13.62,13.62,0,0,0,4,6.84l-.57-.58.14-.14a.42.42,0,0,0,0-.6L2.49,4.43a.4.4,0,0,0-.59,0L.12,6.2a.42.42,0,0,0,0,.59l1.1,1.1a.42.42,0,0,0,.59,0L2,7.74l.59.59a11.29,11.29,0,1,0,20,7.14A11.2,11.2,0,0,0,20,8.33ZM11.29,26A10.48,10.48,0,1,1,21.76,15.47,10.49,10.49,0,0,1,11.29,26Z"/><path class="cls-1" d="M14,8.37a48,48,0,0,0-3,5.46,1.67,1.67,0,1,0,2,1.64,1.73,1.73,0,0,0-.34-1A51.29,51.29,0,0,0,14,8.37Z"/></g></g></svg>