<svg xmlns="http://www.w3.org/2000/svg" viewBox="0 0 13.29 17.28"><defs><style>.cls-1{fill:#fff;}</style></defs><g id="Layer_2" data-name="Layer 2"><g id="Layer_1-2" data-name="Layer 1"><path class="cls-1" d="M12,3.89a.33.33,0,0,0-.33-.3H10.29a.33.33,0,0,0,0,.66h1l1.26,12.36H.7L2,4.25H3a.33.33,0,1,0,0-.66H1.66a.33.33,0,0,0-.33.3L0,16.91a.32.32,0,0,0,.09.26.32.32,0,0,0,.24.11H13a.34.34,0,0,0,.33-.37Z"/><path class="cls-1" d="M8.63,3.92a.33.33,0,0,0-.33-.33H5a.33.33,0,0,0,0,.66H8.3A.33.33,0,0,0,8.63,3.92Z"/><path class="cls-1" d="M3.32,7.57a.66.66,0,1,0,1-.57V3.12A2.41,2.41,0,0,1,6.64.66,2.4,2.4,0,0,1,9,3.12V7a.69.69,0,0,0-.33.57.67.67,0,1,0,1-.57V3.12A3.06,3.06,0,0,0,6.64,0a3.06,3.06,0,0,0-3,3.12V7A.66.66,0,0,0,3.32,7.57Z"/></g></g></svg>